# xmcd
#
# Track frame offsets:
#	180
#	16676
#	28365
#	48828
#	66341
#	76938
#	96036
#	107882
#	124068
#	139360
#	154884
#	163870
#	182667
#	200176
#
# Disc length: 2824 seconds
#
# Revision: 0
# Processed by: cddbd v1.5.2PL0 Copyright (c) Steve Scherf et al.
# Submitted via: dBpowerAMP V4.0
#
DISCID=c40b060e
DTITLE=Os Filhos de Goiás - Som da Terra
DYEAR=1900
DGENRE=Sertaneja
TTITLE0=Amor distante
TTITLE1=Menina bonita
TTITLE2=A volta do meu bem
TTITLE3=Nossa fazenda
TTITLE4=Tchau amor
TTITLE5=Barquinha de ouro
TTITLE6=Gaiola de aço
TTITLE7=Longe do meu bem
TTITLE8=O homem mais triste do mundo
TTITLE9=Tchau, Maria Helena
TTITLE10=Adeus, Mariana
TTITLE11=Vivendo longe do meu bem
TTITLE12=Vinte anos
TTITLE13=Os olhos da menina
EXTD=
EXTT0=
EXTT1=
EXTT2=
EXTT3=
EXTT4=
EXTT5=
EXTT6=
EXTT7=
EXTT8=
EXTT9=
EXTT10=
EXTT11=
EXTT12=
EXTT13=
PLAYORDER=
